<svg id="Ebene_1" data-name="Ebene 1" xmlns="http://www.w3.org/2000/svg" viewBox="0 0 556.47 446.29">
  <path d="M350.07,52.26c-40.22,3.57-137.58,12.21-181.4,73.65C119.23,195.24,155.79,306.83,202,370.09,287.43,487,479.27,539.41,601.23,453.81c55.51-39,106.61-113.56,98.45-191.47-13.16-125.73-173.55-191.91-262-207A348.31,348.31,0,0,0,350.07,52.26Z" transform="translate(-144.57 -50.37)" fill="#36a9e1" stroke="#1d1d1b" stroke-miterlimit="10" opacity="0.42"/>
  <path d="M315.19,101.1a237.92,237.92,0,0,0-36.44,29.46C243.39,166,198.7,210.81,198.91,259.24c.29,67.31,87.18,113.56,117,129.46,22.9,12.19,164.33,87.46,266.67,8.52,37.85-29.19,74.65-82.8,70.54-141.08-10.28-146-267.88-187.89-310.08-169.77A230.18,230.18,0,0,0,315.19,101.1Z" transform="translate(-144.57 -50.37)" fill="#1d1d1b" stroke="#1d1d1b" stroke-miterlimit="10"/>
</svg>
