<svg id="fd" xmlns="http://www.w3.org/2000/svg" viewBox="0 0 647.19 96.3">
  <g class="fd-friede">
    <path class="fd-friede-f" d="M63.28,171.41v-47.9H56v-4.1h7.3v-1.7a29.88,29.88,0,0,1,1.8-10.9,15.27,15.27,0,0,1,5.1-7,12.9,12.9,0,0,1,7.8-2.4,18.85,18.85,0,0,1,5.8.9,13.68,13.68,0,0,1,4.6,2.4l-1.8,3.6a8.85,8.85,0,0,0-3.4-1.85,14.6,14.6,0,0,0-4.3-.65,8.92,8.92,0,0,0-7.85,4q-2.76,4-2.75,11.75v1.8h14.8v4.1H68.28v47.9Z" transform="translate(-55.98 -97.41)" fill="#006494"/>
    <path class="fd-friede-r" d="M117.38,123.91a20.43,20.43,0,0,0-19.6,15v32.5h-5v-51.9h4.8v12.7a24.85,24.85,0,0,1,7.2-9,18.53,18.53,0,0,1,9.5-4c.66-.06,1.26-.1,1.8-.1h1.3Z" transform="translate(-55.98 -97.41)" fill="#006494"/>
    <path class="fd-friede-i" d="M126.88,107.61v-9.2h5v9.2Zm0,63.8v-52h5v52Z" transform="translate(-55.98 -97.41)" fill="#006494"/>
    <path class="fd-friede-e" d="M169.68,172.41a24.25,24.25,0,0,1-10.2-2.14,25.17,25.17,0,0,1-8.15-5.88,27.58,27.58,0,0,1-5.4-8.67,28,28,0,0,1-2-10.41,27.18,27.18,0,0,1,3.3-13.35,26,26,0,0,1,9.1-9.61,23.91,23.91,0,0,1,13-3.64,23.58,23.58,0,0,1,13.1,3.69,27.08,27.08,0,0,1,9.05,9.72,26.73,26.73,0,0,1,3.35,13.2v1.2a4.51,4.51,0,0,1-.1,1h-45.6a23.06,23.06,0,0,0,3.3,10.65,21.6,21.6,0,0,0,7.45,7.51,18.89,18.89,0,0,0,9.95,2.74,19.89,19.89,0,0,0,10.2-2.8,15.39,15.39,0,0,0,6.7-7.2l4.4,1.2a17.76,17.76,0,0,1-4.75,6.6,24.07,24.07,0,0,1-7.6,4.55A25.58,25.58,0,0,1,169.68,172.41ZM149,143.61h41.1a23.75,23.75,0,0,0-3.2-10.75,20.81,20.81,0,0,0-7.35-7.36,19.45,19.45,0,0,0-10.05-2.69,19.14,19.14,0,0,0-10,2.69,20.84,20.84,0,0,0-7.3,7.36A23.51,23.51,0,0,0,149,143.61Z" transform="translate(-55.98 -97.41)" fill="#006494"/>
    <path class="fd-friede-d" d="M202.27,145.61a29,29,0,0,1,3.1-13.35,26.19,26.19,0,0,1,8.5-9.81,21.11,21.11,0,0,1,12.3-3.74,20.78,20.78,0,0,1,12.05,3.6,27.73,27.73,0,0,1,8.25,8.6V98.41h5v66.4a2.62,2.62,0,0,0,.55,1.8,2.32,2.32,0,0,0,1.55.7v4.1a10.54,10.54,0,0,1-2.4.1,4.87,4.87,0,0,1-3-1.7,4.52,4.52,0,0,1-1.2-3V161a23.78,23.78,0,0,1-8.6,8.3,22,22,0,0,1-11.1,3.1,22.59,22.59,0,0,1-10-2.24,25.31,25.31,0,0,1-8-6,28.28,28.28,0,0,1-5.2-8.57A27.38,27.38,0,0,1,202.27,145.61Zm44.2,8.36V137A19.3,19.3,0,0,0,242,130a24.45,24.45,0,0,0-7-5,17.87,17.87,0,0,0-7.7-1.84,17.48,17.48,0,0,0-8.15,1.89,20.35,20.35,0,0,0-6.3,5.08,23.17,23.17,0,0,0-4,7.22,25.26,25.26,0,0,0-1.4,8.31,22.69,22.69,0,0,0,1.6,8.41,23.43,23.43,0,0,0,4.45,7.17,20.54,20.54,0,0,0,6.6,4.88,19.13,19.13,0,0,0,8.15,1.74,17,17,0,0,0,5.75-1.09,24.19,24.19,0,0,0,5.8-3,19.43,19.43,0,0,0,4.6-4.48A10.89,10.89,0,0,0,246.47,154Z" transform="translate(-55.98 -97.41)" fill="#006494"/>
    <path class="fd-friede-e2" d="M289.47,172.41a24.31,24.31,0,0,1-10.2-2.14,25.28,25.28,0,0,1-8.15-5.88,27.58,27.58,0,0,1-5.4-8.67,28,28,0,0,1-2-10.41,27.18,27.18,0,0,1,3.3-13.35,26.06,26.06,0,0,1,9.1-9.61,23.93,23.93,0,0,1,13-3.64,23.55,23.55,0,0,1,13.1,3.69,27,27,0,0,1,9.05,9.72,26.63,26.63,0,0,1,3.35,13.2v1.2a4,4,0,0,1-.1,1H269a23.3,23.3,0,0,0,3.3,10.65,21.78,21.78,0,0,0,7.45,7.51,18.92,18.92,0,0,0,9.95,2.74,19.89,19.89,0,0,0,10.2-2.8,15.34,15.34,0,0,0,6.7-7.2l4.4,1.2a17.65,17.65,0,0,1-4.75,6.6,24,24,0,0,1-7.6,4.55A25.58,25.58,0,0,1,289.47,172.41Zm-20.7-28.8h41.1a23.51,23.51,0,0,0-3.2-10.75,20.65,20.65,0,0,0-7.35-7.36,19.4,19.4,0,0,0-10.05-2.69,19.17,19.17,0,0,0-10,2.69,20.92,20.92,0,0,0-7.3,7.36A23.75,23.75,0,0,0,268.77,143.61Z" transform="translate(-55.98 -97.41)" fill="#006494"/>
  </g>
  <g class="fd-dev">
    <path class="fd-dev-d" d="M201.67,145.61a29,29,0,0,1,3.1-13.35,26.19,26.19,0,0,1,8.5-9.81,21.11,21.11,0,0,1,12.3-3.74,20.78,20.78,0,0,1,12.05,3.6,27.73,27.73,0,0,1,8.25,8.6V98.41h5v66.4a2.62,2.62,0,0,0,.55,1.8,2.32,2.32,0,0,0,1.55.7v4.1a10.54,10.54,0,0,1-2.4.1,4.87,4.87,0,0,1-3-1.7,4.52,4.52,0,0,1-1.2-3V161a23.78,23.78,0,0,1-8.6,8.3,22,22,0,0,1-11.1,3.1,22.59,22.59,0,0,1-10-2.24,25.31,25.31,0,0,1-7.95-6,28.28,28.28,0,0,1-5.2-8.57A27.38,27.38,0,0,1,201.67,145.61Zm44.2,8.36V137a19.3,19.3,0,0,0-4.5-6.92,24.45,24.45,0,0,0-7-5,17.87,17.87,0,0,0-7.7-1.84,17.48,17.48,0,0,0-8.15,1.89,20.35,20.35,0,0,0-6.3,5.08,23.17,23.17,0,0,0-4.05,7.22,25.26,25.26,0,0,0-1.4,8.31,22.69,22.69,0,0,0,1.6,8.41,23.43,23.43,0,0,0,4.45,7.17,20.54,20.54,0,0,0,6.6,4.88,19.13,19.13,0,0,0,8.15,1.74,17,17,0,0,0,5.75-1.09,24.19,24.19,0,0,0,5.8-3,19.43,19.43,0,0,0,4.6-4.48A10.89,10.89,0,0,0,245.87,154Z" transform="translate(-55.98 -97.41)" fill="#36a9e1"/>
    <path class="fd-dev-e" d="M288.87,172.41a24.28,24.28,0,0,1-10.2-2.14,25.28,25.28,0,0,1-8.15-5.88,27.58,27.58,0,0,1-5.4-8.67,28,28,0,0,1-1.95-10.41,27.18,27.18,0,0,1,3.3-13.35,26,26,0,0,1,9.1-9.61,23.93,23.93,0,0,1,13-3.64,23.58,23.58,0,0,1,13.1,3.69,27.12,27.12,0,0,1,12.4,22.92v1.2a4,4,0,0,1-.1,1h-45.6a23.3,23.3,0,0,0,3.3,10.65,21.69,21.69,0,0,0,7.45,7.51,18.89,18.89,0,0,0,9.95,2.74,19.89,19.89,0,0,0,10.2-2.8,15.39,15.39,0,0,0,6.7-7.2l4.4,1.2a17.65,17.65,0,0,1-4.75,6.6,24.07,24.07,0,0,1-7.6,4.55A25.58,25.58,0,0,1,288.87,172.41Zm-20.7-28.8h41.1a23.63,23.63,0,0,0-3.2-10.75,20.81,20.81,0,0,0-7.35-7.36,19.4,19.4,0,0,0-10.05-2.69,19.14,19.14,0,0,0-10,2.69,20.92,20.92,0,0,0-7.3,7.36A23.63,23.63,0,0,0,268.17,143.61Z" transform="translate(-55.98 -97.41)" fill="#36a9e1"/>
    <path class="fd-dev-v" d="M339.67,171.41,318,119.51h5.3l19.1,46.61,19.2-46.61h5l-21.7,51.9Z" transform="translate(-55.98 -97.41)" fill="#36a9e1"/>
    <path class="fd-dev-e2" d="M396.77,172.41a24.31,24.31,0,0,1-10.2-2.14,25.28,25.28,0,0,1-8.15-5.88,27.58,27.58,0,0,1-5.4-8.67,28,28,0,0,1-1.95-10.41,27.18,27.18,0,0,1,3.3-13.35,26.06,26.06,0,0,1,9.1-9.61,23.93,23.93,0,0,1,13-3.64,23.55,23.55,0,0,1,13.1,3.69,27,27,0,0,1,9.05,9.72,26.63,26.63,0,0,1,3.35,13.2v1.2a4,4,0,0,1-.1,1h-45.6a23.3,23.3,0,0,0,3.3,10.65,21.78,21.78,0,0,0,7.45,7.51,18.92,18.92,0,0,0,10,2.74,19.89,19.89,0,0,0,10.2-2.8,15.34,15.34,0,0,0,6.7-7.2l4.4,1.2a17.65,17.65,0,0,1-4.75,6.6,24,24,0,0,1-7.6,4.55A25.58,25.58,0,0,1,396.77,172.41Zm-20.7-28.8h41.1a23.51,23.51,0,0,0-3.2-10.75,20.65,20.65,0,0,0-7.35-7.36,19.4,19.4,0,0,0-10.05-2.69,19.17,19.17,0,0,0-10,2.69,20.92,20.92,0,0,0-7.3,7.36A23.75,23.75,0,0,0,376.07,143.61Z" transform="translate(-55.98 -97.41)" fill="#36a9e1"/>
    <path class="fd-dev-l" d="M433.37,98.41h5.1v63.06q0,3.63,1.5,5a5.57,5.57,0,0,0,3.9,1.36,18.92,18.92,0,0,0,3.3-.3,16.23,16.23,0,0,0,3-.8l1,4.1a30.53,30.53,0,0,1-4.2,1.1,22.63,22.63,0,0,1-4.3.5,9.09,9.09,0,0,1-6.75-2.56,9.35,9.35,0,0,1-2.55-6.89Z" transform="translate(-55.98 -97.41)" fill="#36a9e1"/>
    <path class="fd-dev-o" d="M480.67,172.41a24.14,24.14,0,0,1-18.2-7.92,27.82,27.82,0,0,1-7.2-18.78,28.11,28.11,0,0,1,1.9-10.41,27.23,27.23,0,0,1,5.35-8.57,25.4,25.4,0,0,1,8.1-5.88,23.7,23.7,0,0,1,10.05-2.14,23.37,23.37,0,0,1,10,2.14,26.08,26.08,0,0,1,8.1,5.88,26.84,26.84,0,0,1,5.4,8.57,28.11,28.11,0,0,1,1.9,10.41,27.56,27.56,0,0,1-1.9,10.21,27.12,27.12,0,0,1-5.35,8.57,24.81,24.81,0,0,1-8.1,5.83A24.28,24.28,0,0,1,480.67,172.41Zm-20.4-26.7a23,23,0,0,0,2.75,11.2,21.83,21.83,0,0,0,7.35,8,18.85,18.85,0,0,0,20.45,0,21.85,21.85,0,0,0,7.4-8.16,23.36,23.36,0,0,0,2.75-11.2,23.08,23.08,0,0,0-2.75-11.15,22.14,22.14,0,0,0-7.35-8.11,18.59,18.59,0,0,0-20.45,0,22.39,22.39,0,0,0-7.4,8.16A23.3,23.3,0,0,0,460.27,145.71Z" transform="translate(-55.98 -97.41)" fill="#36a9e1"/>
    <path class="fd-dev-p" d="M543.47,172.41a20.87,20.87,0,0,1-12-3.54,28.86,28.86,0,0,1-8.45-8.61v32.45h-5v-73.2h4.6V130a25.16,25.16,0,0,1,8.5-8.12,21.66,21.66,0,0,1,11.2-3.14,22.16,22.16,0,0,1,10,2.24,25.34,25.34,0,0,1,7.85,6.08,28.81,28.81,0,0,1,5.2,8.62,27.45,27.45,0,0,1,1.85,10,29.83,29.83,0,0,1-3,13.3,24.91,24.91,0,0,1-8.35,9.81A21.4,21.4,0,0,1,543.47,172.41Zm-1.2-4.5a17.66,17.66,0,0,0,8.25-1.89,19.57,19.57,0,0,0,6.25-5.08,23.54,23.54,0,0,0,4-7.17,24.48,24.48,0,0,0,1.4-8.16,23,23,0,0,0-6-15.63,22.28,22.28,0,0,0-6.6-4.93,18.22,18.22,0,0,0-8.15-1.84,17,17,0,0,0-5.75,1.1,23.16,23.16,0,0,0-5.8,3.08,19.76,19.76,0,0,0-4.55,4.53,12.09,12.09,0,0,0-2.2,5.22v17a28.57,28.57,0,0,0,4.65,6.92,21.75,21.75,0,0,0,6.65,5A17.87,17.87,0,0,0,542.27,167.91Z" transform="translate(-55.98 -97.41)" fill="#36a9e1"/>
   </g>
  <g class="fd-de">
    <path class="fd-de-d" d="M202.08,145.61a29,29,0,0,1,3.09-13.35,26.28,26.28,0,0,1,8.5-9.81,21.11,21.11,0,0,1,12.3-3.74,20.78,20.78,0,0,1,12.05,3.6,27.73,27.73,0,0,1,8.25,8.6V98.41h5v66.4a2.57,2.57,0,0,0,.56,1.8,2.27,2.27,0,0,0,1.54.7v4.1a10.54,10.54,0,0,1-2.4.1,4.87,4.87,0,0,1-3-1.7,4.52,4.52,0,0,1-1.2-3V161a23.78,23.78,0,0,1-8.6,8.3,22,22,0,0,1-11.09,3.1,22.53,22.53,0,0,1-10-2.24,25.24,25.24,0,0,1-8-6,28.28,28.28,0,0,1-5.2-8.57A27.37,27.37,0,0,1,202.08,145.61ZM246.27,154V137a19.3,19.3,0,0,0-4.5-6.92,24.45,24.45,0,0,0-7-5,17.86,17.86,0,0,0-7.69-1.84,17.52,17.52,0,0,0-8.16,1.89,20.35,20.35,0,0,0-6.3,5.08,22.94,22.94,0,0,0-4,7.22,25,25,0,0,0-1.41,8.31,22.69,22.69,0,0,0,1.6,8.41,23.62,23.62,0,0,0,4.45,7.17,20.58,20.58,0,0,0,6.61,4.88,19.09,19.09,0,0,0,8.14,1.74,17,17,0,0,0,5.75-1.09,24.19,24.19,0,0,0,5.8-3,19.43,19.43,0,0,0,4.6-4.48A10.8,10.8,0,0,0,246.27,154Z" transform="translate(-55.98 -97.41)" fill="#1d71b8"/>
    <path class="fd-de-e" d="M289.27,172.41a24.31,24.31,0,0,1-10.2-2.14,25.28,25.28,0,0,1-8.15-5.88,27.58,27.58,0,0,1-5.4-8.67,28,28,0,0,1-1.95-10.41,27.18,27.18,0,0,1,3.3-13.35,26.06,26.06,0,0,1,9.1-9.61,23.93,23.93,0,0,1,13-3.64,23.55,23.55,0,0,1,13.1,3.69,27,27,0,0,1,9.05,9.72,26.63,26.63,0,0,1,3.35,13.2v1.2a4,4,0,0,1-.1,1h-45.6a23.3,23.3,0,0,0,3.3,10.65,21.78,21.78,0,0,0,7.45,7.51,18.92,18.92,0,0,0,10,2.74,19.89,19.89,0,0,0,10.2-2.8,15.34,15.34,0,0,0,6.7-7.2l4.4,1.2a17.65,17.65,0,0,1-4.75,6.6,24,24,0,0,1-7.6,4.55A25.58,25.58,0,0,1,289.27,172.41Zm-20.7-28.8h41.1a23.51,23.51,0,0,0-3.2-10.75,20.65,20.65,0,0,0-7.35-7.36,19.4,19.4,0,0,0-10.05-2.69,19.17,19.17,0,0,0-10,2.69,20.92,20.92,0,0,0-7.3,7.36A23.75,23.75,0,0,0,268.57,143.61Z" transform="translate(-55.98 -97.41)" fill="#1d71b8"/>
  </g>
</svg>
