<svg id="responsive" xmlns="http://www.w3.org/2000/svg" viewBox="0 0 1122.97 1062.13">
  <g id="ipod">
    <path d="M298.4,63.67H231.22a2,2,0,0,0-1.95,2.1V82.65h-2.33l-1.32,10.74H111.44a4.26,4.26,0,0,0-4.1,4.41V342.47a4.28,4.28,0,0,0,4.1,4.43H252.49a4.28,4.28,0,0,0,4.1-4.43V97.8a4.26,4.26,0,0,0-4.1-4.41H236.81l-1.33-10.74h-2.31V67.87h63.28v89.48a1.94,1.94,0,1,0,3.88,0V65.77A2,2,0,0,0,298.4,63.67Z" transform="translate(-49.88 -63.67)" fill="#383838"/>
    <path d="M182,226a55.87,55.87,0,1,0,55.86,55.89A55.93,55.93,0,0,0,182,226Zm0,79.4a23.53,23.53,0,1,1,23.55-23.53A23.54,23.54,0,0,1,182,305.4Z" transform="translate(-49.88 -63.67)" fill="#fff"/>
    <rect id="screen" x="68.97" y="41.2" width="126.24" height="112.91" fill="#fff"/>
    <circle cx="181.97" cy="281.87" r="23.8" transform="translate(-193.31 136.49) rotate(-43.06)" fill="#383838"/>
  </g>
  <g id="desktop">
    <path d="M1096.11,84.33H367.91a19.58,19.58,0,0,0-19.58,19.59V597.65a19.61,19.61,0,0,0,19.58,19.59H666.44L662.1,682.1A31.48,31.48,0,0,1,652,703.35l-30.35,27a6.16,6.16,0,0,0,4,10.77H838.29a6.15,6.15,0,0,0,4-10.82l-30.78-26.83a31.08,31.08,0,0,1-10.3-21.73l-3.72-64.48h298.62a19.62,19.62,0,0,0,19.59-19.59V103.92A19.59,19.59,0,0,0,1096.11,84.33Zm-5,424.28H372.89V108.89h718.25Z" transform="translate(-49.88 -63.67)" fill="#383838"/>
    <path d="M731.29,103.68a2.21,2.21,0,0,0,.72.08,2.28,2.28,0,0,0,.73-.08,7.1,7.1,0,0,0,6.47-7.11,7.2,7.2,0,0,0-14.39,0A7.09,7.09,0,0,0,731.29,103.68Z" transform="translate(-49.88 -63.67)" fill="#fff"/>
    <rect id="screen-2" data-name="screen" x="323.01" y="45.22" width="718.25" height="412.39" fill="#fff"/>
  </g>
  <g id="phone">
    <path d="M779.53,877.5a15.85,15.85,0,0,0-13.14-7H637.88A15.83,15.83,0,0,0,622,886.35V1110a15.86,15.86,0,0,0,15.85,15.84H766.39A15.86,15.86,0,0,0,782.23,1110V886.35A15.81,15.81,0,0,0,779.53,877.5Zm-149.1,223.81V895H773.84v206.31Z" transform="translate(-49.88 -63.67)" fill="#383838"/>
    <circle cx="702.13" cy="1113.67" r="8.85" transform="translate(-551.3 1583.59) rotate(-81.68)" fill="#fff"/>
    <circle cx="652.25" cy="1050" r="4.98" fill="none" stroke="#383838" stroke-miterlimit="10" stroke-width="2"/>
    <rect id="screen-3" data-name="screen" x="580.55" y="831.33" width="143.41" height="206.31" fill="#fff"/>
  </g>
  <g id="tablet">
    <path d="M1170.39,748.38h-.64v-17.5c0-15.44-11.8-28-26.29-28H960.1v-.57a2,2,0,0,0-1.94-2.06H930.8a2,2,0,0,0-1.91,2.06v.57H903c-14.51,0-26.29,12.53-26.29,28v345.94c0,15.44,11.78,28,26.29,28h240.46c14.49,0,26.29-12.56,26.29-28V803.93h.64a2.53,2.53,0,0,0,2.46-2.64V751A2.56,2.56,0,0,0,1170.39,748.38ZM898,1058.64v-311h250.38v311Z" transform="translate(-49.88 -63.67)" fill="#383838"/>
    <circle cx="1023.23" cy="1081.53" r="18.2" transform="translate(-258.11 1854.63) rotate(-80.78)" fill="#fff"/>
    <path d="M1023.23,1093.53a12,12,0,1,1,12-12A12,12,0,0,1,1023.23,1093.53Zm0-20.49a8.49,8.49,0,1,0,8.49,8.48A8.49,8.49,0,0,0,1023.23,1073Z" transform="translate(-49.88 -63.67)" fill="#383838"/>
    <rect id="screen-4" data-name="screen" x="848.16" y="684.03" width="250.38" height="310.94" fill="#fff"/>
  </g>
  <g id="laptop">
    <g>
      <path d="M502.22,748.12H98.44A16.44,16.44,0,0,0,82,764.56V993.82a16.46,16.46,0,0,0,16.44,16.44H502.22a16.46,16.46,0,0,0,16.44-16.44V764.56A16.44,16.44,0,0,0,502.22,748.12ZM98.08,994.85V763.5h404.5V994.85Z" transform="translate(-49.88 -63.67)" fill="#383838"/>
      <path d="M299.5,759.66h0a4.38,4.38,0,0,0,.82.08,4.27,4.27,0,0,0,2.85-1.11,4.21,4.21,0,0,0-2.2-7.22,2.81,2.81,0,0,0-.65,0,2.68,2.68,0,0,0-.63,0,.54.54,0,0,0-.21.05,4.18,4.18,0,0,0-2,7.17A4,4,0,0,0,299.5,759.66Z" transform="translate(-49.88 -63.67)" fill="#fff"/>
      <path d="M49.88,1010.15v10c0,6.2,10,11.22,22.46,11.22h456c12.41,0,22.46-5,22.46-11.22v-10Z" transform="translate(-49.88 -63.67)" fill="#383838"/>
      <path d="M272.66,1010.26v1.43c0,.89,1.11,1.61,2.48,1.61h50.38c1.37,0,2.48-.72,2.48-1.61v-1.43Z" transform="translate(-49.88 -63.67)" fill="#fff"/>
    </g>
    <rect id="screen-5" data-name="screen" x="48.2" y="699.83" width="404.5" height="231.35" fill="#fff"/>
  </g>
  <g id="watch">
    <path d="M287.17,533.33a3.65,3.65,0,0,0-1.1-.07l-.3,0-.81.14-3.31.57-.69.13v17.17l.69.12L285,552l.81.15.3,0a3.43,3.43,0,0,0,3.79-3.49V536.76A3.4,3.4,0,0,0,287.17,533.33Z" transform="translate(-49.88 -63.67)" fill="#323333"/>
    <path d="M269.62,450.5l-1.29-.7a28.83,28.83,0,0,0-9.28-3c-6.9-7-10.69-15-11.52-24.09-.34-3.51.09-14.11.09-14.11a26,26,0,0,0-26.07-26.46h-44.2a26.14,26.14,0,0,0-26.07,26.46s.42,10.6.11,14.11c-.85,9.13-4.64,17.07-11.53,24.09a28.49,28.49,0,0,0-9.33,3.05l-1.31.73a29.36,29.36,0,0,0-14.37,25.18V608a29.3,29.3,0,0,0,15.06,25.58l.65.35a29.24,29.24,0,0,0,9.31,3c6.88,7,10.67,15,11.52,24.09.31,3.51-.11,14.11-.11,14.11A26.27,26.27,0,0,0,159,694a25.83,25.83,0,0,0,18.32,7.57h44.2a26.14,26.14,0,0,0,26.07-26.46s-.43-10.6-.09-14.11c.83-9.13,4.61-17.07,11.51-24.09a28.84,28.84,0,0,0,9.38-3.05l.61-.34a29.32,29.32,0,0,0,15-25.57V475.73A29.43,29.43,0,0,0,269.62,450.5ZM278.55,608a23.81,23.81,0,0,1-12.06,20.68l-.58.31a21,21,0,0,1-2.92,1.3,23.32,23.32,0,0,1-8.19,1.46H144.12a23.69,23.69,0,0,1-8.17-1.46A21,21,0,0,1,133,629l-.57-.31A23.77,23.77,0,0,1,120.37,608V475.73a23.7,23.7,0,0,1,11.4-20.27l1.53-.87a22,22,0,0,1,2.64-1.16,23.45,23.45,0,0,1,8.18-1.45H254.8a23.57,23.57,0,0,1,8.13,1.45,21.94,21.94,0,0,1,2.34,1l1.22.63a23.78,23.78,0,0,1,12.06,20.67Z" transform="translate(-49.88 -63.67)" fill="#383838"/>
    <path d="M114.85,521.32v41.07h-.78c-2.08,0-3.78-1.2-3.78-2.67V524c0-1.48,1.7-2.68,3.78-2.68Z" transform="translate(-49.88 -63.67)" fill="#323333"/>
    <rect id="screen-6" data-name="screen" x="81.25" y="400.6" width="136.64" height="155.2" rx="8.25" fill="#fff"/>
    <path d="M257.27,625.47H141.63A14.53,14.53,0,0,1,127.12,611V472.77a14.53,14.53,0,0,1,14.51-14.51H257.27a14.53,14.53,0,0,1,14.51,14.51V611A14.53,14.53,0,0,1,257.27,625.47ZM141.63,464.26a8.52,8.52,0,0,0-8.51,8.51V611a8.52,8.52,0,0,0,8.51,8.51H257.27a8.52,8.52,0,0,0,8.51-8.51V472.77a8.52,8.52,0,0,0-8.51-8.51Z" transform="translate(-49.88 -63.67)" fill="#383838"/>
  </g>
</svg>
