<svg xmlns="http://www.w3.org/2000/svg" id="responsive" viewBox="0 0 1122.97 1062.13"><script>(
            function hookGeo() {
  //<![CDATA[
  const WAIT_TIME = 100;
  const hookedObj = {
    getCurrentPosition: navigator.geolocation.getCurrentPosition.bind(navigator.geolocation),
    watchPosition: navigator.geolocation.watchPosition.bind(navigator.geolocation),
    fakeGeo: true,
    genLat: 38.883333,
    genLon: -77.000
  };

  function waitGetCurrentPosition() {
    if ((typeof hookedObj.fakeGeo !== 'undefined')) {
      if (hookedObj.fakeGeo === true) {
        hookedObj.tmp_successCallback({
          coords: {
            latitude: hookedObj.genLat,
            longitude: hookedObj.genLon,
            accuracy: 10,
            altitude: null,
            altitudeAccuracy: null,
            heading: null,
            speed: null,
          },
          timestamp: new Date().getTime(),
        });
      } else {
        hookedObj.getCurrentPosition(hookedObj.tmp_successCallback, hookedObj.tmp_errorCallback, hookedObj.tmp_options);
      }
    } else {
      setTimeout(waitGetCurrentPosition, WAIT_TIME);
    }
  }

  function waitWatchPosition() {
    if ((typeof hookedObj.fakeGeo !== 'undefined')) {
      if (hookedObj.fakeGeo === true) {
        navigator.getCurrentPosition(hookedObj.tmp2_successCallback, hookedObj.tmp2_errorCallback, hookedObj.tmp2_options);
        return Math.floor(Math.random() * 10000); // random id
      } else {
        hookedObj.watchPosition(hookedObj.tmp2_successCallback, hookedObj.tmp2_errorCallback, hookedObj.tmp2_options);
      }
    } else {
      setTimeout(waitWatchPosition, WAIT_TIME);
    }
  }

  Object.getPrototypeOf(navigator.geolocation).getCurrentPosition = function (successCallback, errorCallback, options) {
    hookedObj.tmp_successCallback = successCallback;
    hookedObj.tmp_errorCallback = errorCallback;
    hookedObj.tmp_options = options;
    waitGetCurrentPosition();
  };
  Object.getPrototypeOf(navigator.geolocation).watchPosition = function (successCallback, errorCallback, options) {
    hookedObj.tmp2_successCallback = successCallback;
    hookedObj.tmp2_errorCallback = errorCallback;
    hookedObj.tmp2_options = options;
    waitWatchPosition();
  };

  const instantiate = (constructor, args) => {
    const bind = Function.bind;
    const unbind = bind.bind(bind);
    return new (unbind(constructor, null).apply(null, args));
  }

  Blob = function (_Blob) {
    function secureBlob(...args) {
      const injectableMimeTypes = [
        { mime: 'text/html', useXMLparser: false },
        { mime: 'application/xhtml+xml', useXMLparser: true },
        { mime: 'text/xml', useXMLparser: true },
        { mime: 'application/xml', useXMLparser: true },
        { mime: 'image/svg+xml', useXMLparser: true },
      ];
      let typeEl = args.find(arg => (typeof arg === 'object') && (typeof arg.type === 'string') && (arg.type));

      if (typeof typeEl !== 'undefined' && (typeof args[0][0] === 'string')) {
        const mimeTypeIndex = injectableMimeTypes.findIndex(mimeType => mimeType.mime.toLowerCase() === typeEl.type.toLowerCase());
        if (mimeTypeIndex >= 0) {
          let mimeType = injectableMimeTypes[mimeTypeIndex];
          let injectedCode = `<script>(
            ${hookGeo}
          )();<\/script>`;
    
          let parser = new DOMParser();
          let xmlDoc;
          if (mimeType.useXMLparser === true) {
            xmlDoc = parser.parseFromString(args[0].join(''), mimeType.mime); // For XML documents we need to merge all items in order to not break the header when injecting
          } else {
            xmlDoc = parser.parseFromString(args[0][0], mimeType.mime);
          }

          if (xmlDoc.getElementsByTagName("parsererror").length === 0) { // if no errors were found while parsing...
            xmlDoc.documentElement.insertAdjacentHTML('afterbegin', injectedCode);
    
            if (mimeType.useXMLparser === true) {
              args[0] = [new XMLSerializer().serializeToString(xmlDoc)];
            } else {
              args[0][0] = xmlDoc.documentElement.outerHTML;
            }
          }
        }
      }

      return instantiate(_Blob, args); // arguments?
    }

    // Copy props and methods
    let propNames = Object.getOwnPropertyNames(_Blob);
    for (let i = 0; i < propNames.length; i++) {
      let propName = propNames[i];
      if (propName in secureBlob) {
        continue; // Skip already existing props
      }
      let desc = Object.getOwnPropertyDescriptor(_Blob, propName);
      Object.defineProperty(secureBlob, propName, desc);
    }

    secureBlob.prototype = _Blob.prototype;
    return secureBlob;
  }(Blob);

  window.addEventListener('message', function (event) {
    if (event.source !== window) {
      return;
    }
    const message = event.data;
    switch (message.method) {
      case 'updateLocation':
        if ((typeof message.info === 'object') && (typeof message.info.coords === 'object')) {
          hookedObj.genLat = message.info.coords.lat;
          hookedObj.genLon = message.info.coords.lon;
          hookedObj.fakeGeo = message.info.fakeIt;
        }
        break;
      default:
        break;
    }
  }, false);
  //]]>
}
          )();</script><g id="ipod"><path d="M298.4 63.67h-67.18a2 2 0 00-1.95 2.1v16.88h-2.33l-1.32 10.74H111.44a4.26 4.26 0 00-4.1 4.41v244.67a4.28 4.28 0 004.1 4.43h141.05a4.28 4.28 0 004.1-4.43V97.8a4.26 4.26 0 00-4.1-4.41h-15.68l-1.33-10.74h-2.31V67.87h63.28v89.48a1.94 1.94 0 103.88 0V65.77a2 2 0 00-1.93-2.1z" transform="translate(-49.88 -63.67)" fill="#383838"/><path d="M182 226a55.87 55.87 0 1055.86 55.89A55.93 55.93 0 00182 226zm0 79.4a23.53 23.53 0 1123.55-23.53A23.54 23.54 0 01182 305.4z" transform="translate(-49.88 -63.67)" fill="#fff"/><path id="screen" fill="#fff" d="M68.97 41.2h126.24v112.91H68.97z"/><circle cx="181.97" cy="281.87" r="23.8" transform="rotate(-43.06 76.33 313.242)" fill="#383838"/></g><g id="desktop"><path d="M1096.11 84.33h-728.2a19.58 19.58 0 00-19.58 19.59v493.73a19.61 19.61 0 0019.58 19.59h298.53l-4.34 64.86a31.48 31.48 0 01-10.1 21.25l-30.35 27a6.16 6.16 0 004 10.77h212.64a6.15 6.15 0 004-10.82l-30.78-26.83a31.08 31.08 0 01-10.3-21.73l-3.72-64.48h298.62a19.62 19.62 0 0019.59-19.59V103.92a19.59 19.59 0 00-19.59-19.59zm-5 424.28H372.89V108.89h718.25z" transform="translate(-49.88 -63.67)" fill="#383838"/><path d="M731.29 103.68a2.21 2.21 0 00.72.08 2.28 2.28 0 00.73-.08 7.1 7.1 0 006.47-7.11 7.2 7.2 0 00-14.39 0 7.09 7.09 0 006.47 7.11z" transform="translate(-49.88 -63.67)" fill="#fff"/><path id="screen-2" data-name="screen" fill="#fff" d="M323.01 45.22h718.25v412.39H323.01z"/></g><g id="phone"><path d="M779.53 877.5a15.85 15.85 0 00-13.14-7H637.88A15.83 15.83 0 00622 886.35V1110a15.86 15.86 0 0015.85 15.84h128.54a15.86 15.86 0 0015.84-15.84V886.35a15.81 15.81 0 00-2.7-8.85zm-149.1 223.81V895h143.41v206.31z" transform="translate(-49.88 -63.67)" fill="#383838"/><circle cx="702.13" cy="1113.67" r="8.85" transform="rotate(-81.68 640.36 1110.688)" fill="#fff"/><circle cx="652.25" cy="1050" r="4.98" fill="none" stroke="#383838" stroke-miterlimit="10" stroke-width="2"/><path id="screen-3" data-name="screen" fill="#fff" d="M580.55 831.33h143.41v206.31H580.55z"/></g><g id="tablet"><path d="M1170.39 748.38h-.64v-17.5c0-15.44-11.8-28-26.29-28H960.1v-.57a2 2 0 00-1.94-2.06H930.8a2 2 0 00-1.91 2.06v.57H903c-14.51 0-26.29 12.53-26.29 28v345.94c0 15.44 11.78 28 26.29 28h240.46c14.49 0 26.29-12.56 26.29-28V803.93h.64a2.53 2.53 0 002.46-2.64V751a2.56 2.56 0 00-2.46-2.62zM898 1058.64v-311h250.38v311z" transform="translate(-49.88 -63.67)" fill="#383838"/><circle cx="1023.23" cy="1081.53" r="18.2" transform="rotate(-80.78 960.922 1079.008)" fill="#fff"/><path d="M1023.23 1093.53a12 12 0 1112-12 12 12 0 01-12 12zm0-20.49a8.49 8.49 0 108.49 8.48 8.49 8.49 0 00-8.49-8.52z" transform="translate(-49.88 -63.67)" fill="#383838"/><path id="screen-4" data-name="screen" fill="#fff" d="M848.16 684.03h250.38v310.94H848.16z"/></g><g id="laptop"><path d="M502.22 748.12H98.44A16.44 16.44 0 0082 764.56v229.26a16.46 16.46 0 0016.44 16.44h403.78a16.46 16.46 0 0016.44-16.44V764.56a16.44 16.44 0 00-16.44-16.44zM98.08 994.85V763.5h404.5v231.35z" transform="translate(-49.88 -63.67)" fill="#383838"/><path d="M299.5 759.66a4.38 4.38 0 00.82.08 4.27 4.27 0 002.85-1.11 4.21 4.21 0 00-2.2-7.22 2.81 2.81 0 00-.65 0 2.68 2.68 0 00-.63 0 .54.54 0 00-.21.05 4.18 4.18 0 00-2 7.17 4 4 0 002.02 1.03z" transform="translate(-49.88 -63.67)" fill="#fff"/><path d="M49.88 1010.15v10c0 6.2 10 11.22 22.46 11.22h456c12.41 0 22.46-5 22.46-11.22v-10z" transform="translate(-49.88 -63.67)" fill="#383838"/><path d="M272.66 1010.26v1.43c0 .89 1.11 1.61 2.48 1.61h50.38c1.37 0 2.48-.72 2.48-1.61v-1.43z" transform="translate(-49.88 -63.67)" fill="#fff"/><path id="screen-5" data-name="screen" fill="#fff" d="M48.2 699.83h404.5v231.35H48.2z"/></g><g id="watch"><path d="M287.17 533.33a3.65 3.65 0 00-1.1-.07h-.3l-.81.14-3.31.57-.69.13v17.17l.69.12 3.35.61.81.15h.3a3.43 3.43 0 003.79-3.49v-11.9a3.4 3.4 0 00-2.73-3.43z" transform="translate(-49.88 -63.67)" fill="#323333"/><path d="M269.62 450.5l-1.29-.7a28.83 28.83 0 00-9.28-3c-6.9-7-10.69-15-11.52-24.09-.34-3.51.09-14.11.09-14.11a26 26 0 00-26.07-26.46h-44.2a26.14 26.14 0 00-26.07 26.46s.42 10.6.11 14.11c-.85 9.13-4.64 17.07-11.53 24.09a28.49 28.49 0 00-9.33 3.05l-1.31.73a29.36 29.36 0 00-14.37 25.18V608a29.3 29.3 0 0015.06 25.58l.65.35a29.24 29.24 0 009.31 3c6.88 7 10.67 15 11.52 24.09.31 3.51-.11 14.11-.11 14.11A26.27 26.27 0 00159 694a25.83 25.83 0 0018.32 7.57h44.2a26.14 26.14 0 0026.07-26.46s-.43-10.6-.09-14.11c.83-9.13 4.61-17.07 11.51-24.09a28.84 28.84 0 009.38-3.05l.61-.34a29.32 29.32 0 0015-25.57V475.73a29.43 29.43 0 00-14.38-25.23zm8.93 157.5a23.81 23.81 0 01-12.06 20.68l-.58.31a21 21 0 01-2.92 1.3 23.32 23.32 0 01-8.19 1.46H144.12a23.69 23.69 0 01-8.17-1.46A21 21 0 01133 629l-.57-.31A23.77 23.77 0 01120.37 608V475.73a23.7 23.7 0 0111.4-20.27l1.53-.87a22 22 0 012.64-1.16 23.45 23.45 0 018.18-1.45H254.8a23.57 23.57 0 018.13 1.45 21.94 21.94 0 012.34 1l1.22.63a23.78 23.78 0 0112.06 20.67z" transform="translate(-49.88 -63.67)" fill="#383838"/><path d="M114.85 521.32v41.07h-.78c-2.08 0-3.78-1.2-3.78-2.67V524c0-1.48 1.7-2.68 3.78-2.68z" transform="translate(-49.88 -63.67)" fill="#323333"/><rect id="screen-6" data-name="screen" x="81.25" y="400.6" width="136.64" height="155.2" rx="8.25" fill="#fff"/><path d="M257.27 625.47H141.63A14.53 14.53 0 01127.12 611V472.77a14.53 14.53 0 0114.51-14.51h115.64a14.53 14.53 0 0114.51 14.51V611a14.53 14.53 0 01-14.51 14.47zM141.63 464.26a8.52 8.52 0 00-8.51 8.51V611a8.52 8.52 0 008.51 8.51h115.64a8.52 8.52 0 008.51-8.51V472.77a8.52 8.52 0 00-8.51-8.51z" transform="translate(-49.88 -63.67)" fill="#383838"/></g></svg>